<svg width="18" height="24" viewBox="0 0 18 24" fill="none" xmlns="http://www.w3.org/2000/svg">
<path id="Vector" d="M2.00798e-07 2.99993V23.2495C-9.50885e-05 23.3797 0.033726 23.5077 0.0981346 23.6209C0.162543 23.7341 0.255319 23.8286 0.367329 23.895C0.479339 23.9615 0.606723 23.9976 0.736941 23.9999C0.867158 24.0021 0.995722 23.9705 1.10997 23.908L8.99979 19.6031L16.8896 23.908C17.0039 23.9705 17.1324 24.0021 17.2626 23.9999C17.3929 23.9976 17.5203 23.9615 17.6323 23.895C17.7443 23.8286 17.837 23.7341 17.9015 23.6209C17.9659 23.5077 17.9997 23.3797 17.9996 23.2495V2.99993C17.9996 2.2043 17.6835 1.44126 17.1209 0.87866C16.5583 0.316063 15.7953 0 14.9997 0L2.99993 0C2.2043 0 1.44126 0.316063 0.87866 0.87866C0.316063 1.44126 2.00798e-07 2.2043 2.00798e-07 2.99993Z" fill="url(#paint0_linear_42_420)"/>
<defs>
<linearGradient id="paint0_linear_42_420" x1="8.99979" y1="0" x2="8.99979" y2="24" gradientUnits="userSpaceOnUse">
<stop stop-color="#FF7674"/>
<stop offset="1" stop-color="#EB5E5C"/>
</linearGradient>
</defs>
</svg>
