<svg width="24" height="24" viewBox="0 0 24 24" fill="none" xmlns="http://www.w3.org/2000/svg">
<path id="Vector" d="M8.8836 16.8565L9.6516 16.7243C9.8004 16.6979 9.978 16.6594 10.1832 16.6065C12.72 15.9696 14.4 14.0707 14.4 12.0181C14.4 9.4522 11.7888 7.21083 8.4 7.21083C5.0112 7.21083 2.4 9.4522 2.4 12.0181C2.4 13.4819 3.2424 14.8759 4.7172 15.8037L4.7604 15.8278L6 16.5128V19.8334L8.8836 16.8565ZM10.062 19.0919L5.6616 23.6347C5.4953 23.8065 5.28158 23.9247 5.04781 23.9741C4.81404 24.0235 4.57086 24.0019 4.34942 23.9121C4.12799 23.8222 3.93837 23.6682 3.80485 23.4698C3.67134 23.2714 3.60001 23.0375 3.6 22.7982V17.9309C3.54639 17.9019 3.49357 17.8715 3.4416 17.8396C1.3548 16.5272 0 14.4084 0 12.0181C0 8.03527 3.7608 4.80722 8.4 4.80722C13.0392 4.80722 16.8 8.03527 16.8 12.0181C16.8 15.2942 14.2548 18.0607 10.7688 18.938C10.5352 18.998 10.2994 19.0493 10.062 19.0919ZM8.3232 3.60542C9.7752 1.45058 12.492 0 15.6 0C20.2392 0 24 3.22805 24 7.21083C24 9.60122 22.644 11.72 20.5584 13.0324C20.5064 13.0642 20.4536 13.0947 20.4 13.1237V17.991C20.4 18.2303 20.3287 18.4641 20.1951 18.6626C20.0616 18.861 19.872 19.015 19.6506 19.1048C19.4291 19.1947 19.186 19.2163 18.9522 19.1669C18.7184 19.1175 18.5047 18.9993 18.3384 18.8275L16.2564 16.6787L17.508 14.5178L18 15.0262V11.7056L19.2396 11.0206L19.2828 10.9965C20.7588 10.0687 21.6 8.67463 21.6 7.21083C21.6 4.64498 18.9888 2.40361 15.6 2.40361C14.064 2.40361 12.6888 2.8639 11.6436 3.60542H8.3232Z" fill="#2F2F2F"/>
</svg>
