<svg width="24" height="24" viewBox="0 0 24 24" fill="none" xmlns="http://www.w3.org/2000/svg">
<g id="Group 23">
<path id="Vector" d="M12 22.8533C12.4199 22.8437 12.8229 22.6858 13.1377 22.4076C13.4525 22.1295 13.6587 21.7489 13.72 21.3333H10.2133C10.2763 21.7602 10.4922 22.1497 10.8209 22.4293C11.1495 22.7089 11.5685 22.8596 12 22.8533Z" fill="#F8F8F8"/>
<path id="Vector_2" d="M21.9001 18.7533L21.6734 18.5533C21.0303 17.9804 20.4675 17.3234 20.0001 16.6C19.4895 15.6017 19.1835 14.5115 19.1001 13.3933V10.1C19.0973 9.69995 19.0617 9.30082 18.9934 8.90665C17.8641 8.67454 16.8498 8.05933 16.1221 7.16517C15.3943 6.27101 14.998 5.15285 15.0001 3.99999V3.57999C14.304 3.23744 13.5562 3.01219 12.7867 2.91332V2.07332C12.7867 1.83728 12.693 1.6109 12.526 1.44399C12.3591 1.27709 12.1328 1.18332 11.8967 1.18332C11.6607 1.18332 11.4343 1.27709 11.2674 1.44399C11.1005 1.6109 11.0067 1.83728 11.0067 2.07332V2.94665C9.28386 3.18969 7.7071 4.04782 6.56753 5.36261C5.42796 6.6774 4.80254 8.36008 4.80672 10.1V13.3933C4.72322 14.5115 4.41724 15.6017 3.90672 16.6C3.44731 17.3216 2.89352 17.9785 2.26005 18.5533L2.03339 18.7533V20.6333H21.9001V18.7533Z" fill="#F8F8F8"/>
<path id="Vector_3" d="M20 7.33332C21.8409 7.33332 23.3333 5.84094 23.3333 3.99999C23.3333 2.15904 21.8409 0.666656 20 0.666656C18.159 0.666656 16.6666 2.15904 16.6666 3.99999C16.6666 5.84094 18.159 7.33332 20 7.33332Z" fill="#F8F8F8"/>
</g>
</svg>
