<svg width="20" height="15" viewBox="0 0 20 15" fill="none" xmlns="http://www.w3.org/2000/svg">
<g id="Elements / Connection">
<path id="Wifi" fill-rule="evenodd" clip-rule="evenodd" d="M9.95117 3.28383C12.7972 3.28395 15.5344 4.40385 17.597 6.41205C17.7524 6.56709 18.0006 6.56514 18.1536 6.40767L19.6383 4.87315C19.7158 4.79328 19.759 4.68509 19.7583 4.57253C19.7577 4.45997 19.7133 4.35231 19.6349 4.27337C14.2212 -1.03985 5.68034 -1.03985 0.266594 4.27337C0.188172 4.35225 0.143676 4.45988 0.142953 4.57244C0.14223 4.685 0.185339 4.79322 0.262741 4.87315L1.7479 6.40767C1.90078 6.56537 2.14923 6.56733 2.30446 6.41205C4.36736 4.40372 7.10487 3.28382 9.95117 3.28383ZM9.95116 8.27613C11.5149 8.27604 13.0228 8.87125 14.1819 9.94613C14.3386 10.0987 14.5856 10.0954 14.7384 9.93868L16.2215 8.40416C16.2996 8.32367 16.3429 8.21448 16.3418 8.10101C16.3406 7.98755 16.2951 7.87928 16.2155 7.80043C12.6858 4.43802 7.21956 4.43802 3.68985 7.80043C3.61012 7.87928 3.56463 7.9876 3.56358 8.1011C3.56254 8.2146 3.60602 8.32378 3.68429 8.40416L5.16688 9.93868C5.3197 10.0954 5.56666 10.0987 5.72344 9.94613C6.88178 8.87196 8.38848 8.2768 9.95116 8.27613ZM12.9219 11.6353C12.9242 11.7491 12.8805 11.8588 12.8012 11.9385L10.2359 14.5898C10.1607 14.6677 10.0581 14.7115 9.95115 14.7115C9.84417 14.7115 9.74165 14.6677 9.66645 14.5898L7.10071 11.9385C7.02145 11.8588 6.97784 11.749 6.98019 11.6353C6.98254 11.5215 7.03064 11.4137 7.11312 11.3375C8.75143 9.91839 11.1509 9.91839 12.7892 11.3375C12.8716 11.4138 12.9196 11.5216 12.9219 11.6353Z" fill="black"/>
</g>
</svg>
