<svg width="24" height="15" viewBox="0 0 24 15" fill="none" xmlns="http://www.w3.org/2000/svg">
<g id="Elements / Signal">
<path id="Cellular Connection" fill-rule="evenodd" clip-rule="evenodd" d="M21.7968 0.576843H20.4507C19.7072 0.576843 19.1045 1.15801 19.1045 1.87492V13.1249C19.1045 13.8418 19.7072 14.423 20.4507 14.423H21.7968C22.5403 14.423 23.143 13.8418 23.143 13.1249V1.87492C23.143 1.15801 22.5403 0.576843 21.7968 0.576843ZM14.1158 3.60585H15.462C16.2054 3.60585 16.8081 4.18702 16.8081 4.90392V13.1251C16.8081 13.842 16.2054 14.4232 15.462 14.4232H14.1158C13.3724 14.4232 12.7697 13.842 12.7697 13.1251V4.90392C12.7697 4.18702 13.3724 3.60585 14.1158 3.60585ZM9.12713 6.63445H7.78098C7.03752 6.63445 6.43483 7.21562 6.43483 7.93252V13.1248C6.43483 13.8417 7.03752 14.4229 7.78098 14.4229H9.12713C9.87059 14.4229 10.4733 13.8417 10.4733 13.1248V7.93252C10.4733 7.21562 9.87059 6.63445 9.12713 6.63445ZM2.79228 9.23055H1.44613C0.702669 9.23055 0.0999756 9.81172 0.0999756 10.5286V13.1248C0.0999756 13.8417 0.702669 14.4229 1.44613 14.4229H2.79228C3.53574 14.4229 4.13844 13.8417 4.13844 13.1248V10.5286C4.13844 9.81172 3.53574 9.23055 2.79228 9.23055Z" fill="black"/>
</g>
</svg>
